<?xml version="1.0"?>
<svg xmlns="http://www.w3.org/2000/svg" xmlns:xlink="http://www.w3.org/1999/xlink" xmlns:svgjs="http://svgjs.com/svgjs" version="1.1" width="512" height="512" x="0" y="0" viewBox="0 0 512 512" style="enable-background:new 0 0 512 512" xml:space="preserve" class=""><g>
<path xmlns="http://www.w3.org/2000/svg" style="" d="M512,256c0,3.594-0.073,7.158-0.23,10.71c-0.324,8.067-1.024,16.029-2.1,23.876  c-2.487,18.463-6.949,36.31-13.155,53.311c-5.945,16.269-13.5,31.754-22.465,46.289c-15.067,24.44-34.137,46.153-56.289,64.23  c-7.398,6.05-15.13,11.682-23.186,16.865c-12.716,8.202-26.206,15.308-40.343,21.18c-5.925,2.466-11.954,4.713-18.087,6.729  C310.941,507.507,283.993,512,256,512c-48.421,0-93.686-13.437-132.295-36.801c-15.809-9.55-30.501-20.773-43.833-33.426  c-5.726-5.423-11.201-11.118-16.405-17.053c-15.757-17.951-29.027-38.139-39.309-60.008C8.662,331.713,0,294.87,0,256  C0,114.615,114.615,0,256,0c120.174,0,220.996,82.798,248.55,194.456c0.324,1.296,0.637,2.591,0.94,3.897  C509.743,216.879,512,236.178,512,256z" fill="#c6cbef" data-original="#ffcda8" class=""/>
<path xmlns="http://www.w3.org/2000/svg" style="" d="M494.762,78.751c5.902,41.124-44.877,82.433-113.421,92.27c-23.872,3.426-46.752,2.582-66.674-1.706  l-0.011-0.008c-37.297-8.033-64.27-28.135-68.116-54.933c-5.902-41.124,44.887-82.445,113.43-92.281S488.861,37.627,494.762,78.751z  " fill="#5950fc" data-original="#ff5b47" class=""/>
<g xmlns="http://www.w3.org/2000/svg">
	<path style="" d="M370.371,94.589c-37.455,5.375-71.116-5.528-82.9-25.098c-1.056,4.019-1.344,8.109-0.757,12.197   c3.812,26.561,42.788,42.943,87.056,36.59c44.268-6.353,77.064-33.034,73.253-59.596c-0.586-4.088-2.012-7.932-4.157-11.492   C437.063,69.286,407.827,89.214,370.371,94.589z" fill="#494ca2" data-original="#e53e2d" class=""/>
	<path style="" d="M320.577,91.766l-3.646,21.308c0,0-36.033,30.928-2.276,56.231   c-37.297-8.033-64.27-28.135-68.116-54.933c-5.902-41.124,44.887-82.445,113.43-92.281   C359.969,22.091,294.543,64.162,320.577,91.766z" fill="#494ca2" data-original="#e53e2d" class=""/>
</g>
<path xmlns="http://www.w3.org/2000/svg" style="" d="M512,256c0,3.594-0.073,7.158-0.23,10.71c-0.324,8.067-1.024,16.029-2.1,23.876  c-2.487,18.463-6.949,36.31-13.155,53.311c-10.083-0.439-19.738-1.682-28.776-3.626h-0.01  c-37.303-8.035-64.272-28.139-68.117-54.941c-5.653-39.403,40.741-78.994,104.939-90.875c0.324,1.296,0.637,2.591,0.94,3.897  C509.743,216.879,512,236.178,512,256z" fill="#5950fc" data-original="#ff5b47" class=""/>
<g xmlns="http://www.w3.org/2000/svg">
	<path style="" d="M511.77,266.71c-0.324,8.067-1.024,16.029-2.1,23.876c-14.775,0.209-28.411-2.152-39.675-6.552   c-16.771-6.541-28.233-17.586-30.208-31.389c-0.596-4.086-0.303-8.171,0.752-12.194c6.06,10.073,17.92,17.847,33.102,22.288   C484.864,266.021,497.904,267.483,511.77,266.71z" fill="#494ca2" data-original="#e53e2d" class=""/>
	<path style="" d="M473.642,262.729v0.01l-3.647,21.295c0,0-36.028,30.929-2.267,56.236   c-37.303-8.035-64.272-28.139-68.117-54.941c-5.653-39.403,40.741-78.994,104.939-90.875c0.324,1.296,0.637,2.591,0.94,3.897   C489.085,210.516,453.224,241.068,473.642,262.729z" fill="#494ca2" data-original="#e53e2d" class=""/>
</g>
<path xmlns="http://www.w3.org/2000/svg" style="" d="M315.706,394.037c-26.514,31.984-91.222,22.086-144.53-22.107  c-18.566-15.391-33.302-32.914-43.5-50.557l-0.001-0.015c-19.087-33.033-22.3-66.52-5.021-87.363  c26.514-31.984,91.236-22.088,144.545,22.106S342.221,362.053,315.706,394.037z" fill="#5950fc" data-original="#ff5b47" class=""/>
<g xmlns="http://www.w3.org/2000/svg">
	<path style="" d="M220.454,312.485c-29.131-24.15-43.65-56.415-37.058-78.288c-3.687,1.915-6.912,4.449-9.547,7.628   c-17.125,20.658-3.097,60.541,31.332,89.084s76.222,34.933,93.348,14.275c2.635-3.18,4.528-6.817,5.726-10.796   C283.981,344.921,249.584,336.634,220.454,312.485z" fill="#494ca2" data-original="#e53e2d" class=""/>
	<path style="" d="M189.113,273.687l-18.239,11.605c0,0-47.113-5.939-43.2,36.067   c-19.087-33.033-22.3-66.52-5.021-87.363c26.514-31.984,91.236-22.088,144.545,22.106   C267.198,256.101,192.092,235.859,189.113,273.687z" fill="#494ca2" data-original="#e53e2d" class=""/>
</g>
<path xmlns="http://www.w3.org/2000/svg" style="" d="M252.35,193.018c-9.337,40.482-71.602,60.682-139.076,45.12c-23.5-5.42-44.533-14.465-61.565-25.652  l-0.008-0.013C19.816,191.521,1.915,163.04,8,136.659c9.337-40.482,71.614-60.69,139.088-45.127S261.687,152.535,252.35,193.018z" fill="#5950fc" data-original="#ff5b47" class=""/>
<g xmlns="http://www.w3.org/2000/svg">
	<path style="" d="M130.627,162.897c-36.87-8.504-64.328-30.819-68.256-53.324c-2.436,3.367-4.18,7.078-5.107,11.102   c-6.031,26.146,24.407,55.49,67.984,65.541s83.792-2.997,89.824-29.143c0.928-4.024,0.985-8.124,0.272-12.218   C201.955,163.367,167.497,171.402,130.627,162.897z" fill="#494ca2" data-original="#e53e2d" class=""/>
	<path style="" d="M85.206,142.294l-11.09,18.557c0,0-44.767,15.84-22.415,51.621   C19.818,191.521,1.916,163.04,8.001,136.659c9.337-40.482,71.614-60.69,139.088-45.127   C147.088,91.531,70.888,107.155,85.206,142.294z" fill="#494ca2" data-original="#e53e2d" class=""/>
</g>
<path xmlns="http://www.w3.org/2000/svg" style="" d="M474.049,390.186c-15.067,24.44-34.137,46.153-56.289,64.23c-7.398,6.05-15.13,11.682-23.186,16.865  c-18.045,11.64-37.648,21.076-58.431,27.909c-18.025-15.172-28.014-33.688-26.07-52.642c4.221-41.336,63.509-69.13,132.389-62.088  C453.465,385.588,464.05,387.532,474.049,390.186z" fill="#5950fc" data-original="#ff5b47" class=""/>
<g xmlns="http://www.w3.org/2000/svg">
	<path style="" d="M417.761,454.416c-7.398,6.05-15.13,11.682-23.186,16.865   c-24.158-10.762-39.487-28.421-37.606-46.728c0.418-4.106,1.682-8.004,3.678-11.651   C366.279,431.282,388.441,447.467,417.761,454.416z" fill="#494ca2" data-original="#e53e2d" class=""/>
	<path style="" d="M387.375,442.525l-8.694,19.801c0,0-22.559,11.316-24.451,30.135   c-5.925,2.466-11.954,4.712-18.087,6.729c-18.025-15.172-28.014-33.688-26.07-52.642c4.221-41.336,63.509-69.13,132.389-62.088   C442.462,384.46,368.797,409.443,387.375,442.525z" fill="#494ca2" data-original="#e53e2d" class=""/>
</g>
<path xmlns="http://www.w3.org/2000/svg" style="" d="M123.705,475.199c-15.809-9.55-30.501-20.773-43.833-33.426  c-5.726-5.423-11.201-11.118-16.405-17.053c-15.757-17.951-29.027-38.139-39.309-60.008c58.535-24.68,117.164-17.795,134.426,17.209  C171.948,409.025,156.839,445.524,123.705,475.199z" fill="#5950fc" data-original="#ff5b47" class=""/>
<path xmlns="http://www.w3.org/2000/svg" style="" d="M79.872,441.772c-5.726-5.423-11.201-11.118-16.405-17.053c23.218-16.52,37.073-38.306,35.997-56.696  c3.145,2.717,5.684,5.925,7.513,9.634C116.203,396.361,104.417,422.003,79.872,441.772z" fill="#494ca2" data-original="#e53e2d" class=""/>
<g xmlns="http://www.w3.org/2000/svg">
</g>
<g xmlns="http://www.w3.org/2000/svg">
</g>
<g xmlns="http://www.w3.org/2000/svg">
</g>
<g xmlns="http://www.w3.org/2000/svg">
</g>
<g xmlns="http://www.w3.org/2000/svg">
</g>
<g xmlns="http://www.w3.org/2000/svg">
</g>
<g xmlns="http://www.w3.org/2000/svg">
</g>
<g xmlns="http://www.w3.org/2000/svg">
</g>
<g xmlns="http://www.w3.org/2000/svg">
</g>
<g xmlns="http://www.w3.org/2000/svg">
</g>
<g xmlns="http://www.w3.org/2000/svg">
</g>
<g xmlns="http://www.w3.org/2000/svg">
</g>
<g xmlns="http://www.w3.org/2000/svg">
</g>
<g xmlns="http://www.w3.org/2000/svg">
</g>
<g xmlns="http://www.w3.org/2000/svg">
</g>
</g></svg>
