<?xml version="1.0"?>
<svg xmlns="http://www.w3.org/2000/svg" xmlns:xlink="http://www.w3.org/1999/xlink" xmlns:svgjs="http://svgjs.com/svgjs" version="1.1" width="512" height="512" x="0" y="0" viewBox="0 0 512 512" style="enable-background:new 0 0 512 512" xml:space="preserve" class=""><g>
<g xmlns="http://www.w3.org/2000/svg">
	<path style="" d="M254.244,227.491c-29.085-52.575-58.59-97.261-58.884-97.706c-2.778-4.197-7.476-6.722-12.509-6.722   s-9.731,2.524-12.509,6.722c-0.294,0.445-29.799,45.131-58.884,97.706C71.55,299.629,51.315,352.038,51.315,383.262   c0,36.904,13.803,70.186,38.866,93.715C114.238,499.562,147.149,512,182.851,512c35.701,0,68.612-12.438,92.67-35.023   c25.063-23.529,38.866-56.811,38.866-93.715C314.387,352.038,294.152,299.629,254.244,227.491z" fill="#5950fc" data-original="#008de4" class=""/>
	<path style="" d="M424.409,64.826c-17.291-31.255-34.303-57.022-35.019-58.104C386.613,2.524,381.915,0,376.881,0   s-9.731,2.524-12.509,6.723c-0.716,1.081-17.728,26.849-35.018,58.104c-24.411,44.125-36.277,75.181-36.277,94.942   c0,23.503,8.838,44.744,24.886,59.81c15.347,14.408,36.271,22.343,58.918,22.343s43.571-7.935,58.919-22.343   c16.048-15.065,24.886-36.307,24.886-59.81C460.686,140.007,448.82,108.951,424.409,64.826z" fill="#5950fc" data-original="#008de4" class=""/>
</g>
<g xmlns="http://www.w3.org/2000/svg">
	<path style="" d="M182.851,123.063c-5.033,0-9.731,2.524-12.509,6.722c-0.294,0.445-29.799,45.131-58.884,97.706   C71.55,299.629,51.315,352.038,51.315,383.262c0,36.904,13.803,70.186,38.866,93.715C114.238,499.562,147.149,512,182.851,512   V123.063z" fill="#5950fc" data-original="#2ac1ff" class=""/>
	<path style="" d="M376.881,0c-5.034,0-9.731,2.524-12.509,6.723c-0.716,1.081-17.728,26.849-35.018,58.104   c-24.411,44.125-36.277,75.181-36.277,94.942c0,23.503,8.838,44.744,24.886,59.81c15.347,14.408,36.271,22.343,58.918,22.343   L376.881,0L376.881,0z" fill="#5950fc" data-original="#2ac1ff" class=""/>
</g>
<g xmlns="http://www.w3.org/2000/svg">
</g>
<g xmlns="http://www.w3.org/2000/svg">
</g>
<g xmlns="http://www.w3.org/2000/svg">
</g>
<g xmlns="http://www.w3.org/2000/svg">
</g>
<g xmlns="http://www.w3.org/2000/svg">
</g>
<g xmlns="http://www.w3.org/2000/svg">
</g>
<g xmlns="http://www.w3.org/2000/svg">
</g>
<g xmlns="http://www.w3.org/2000/svg">
</g>
<g xmlns="http://www.w3.org/2000/svg">
</g>
<g xmlns="http://www.w3.org/2000/svg">
</g>
<g xmlns="http://www.w3.org/2000/svg">
</g>
<g xmlns="http://www.w3.org/2000/svg">
</g>
<g xmlns="http://www.w3.org/2000/svg">
</g>
<g xmlns="http://www.w3.org/2000/svg">
</g>
<g xmlns="http://www.w3.org/2000/svg">
</g>
</g></svg>
