<?xml version="1.0"?>
<svg xmlns="http://www.w3.org/2000/svg" xmlns:xlink="http://www.w3.org/1999/xlink" xmlns:svgjs="http://svgjs.com/svgjs" version="1.1" width="512" height="512" x="0" y="0" viewBox="0 0 512 512" style="enable-background:new 0 0 512 512" xml:space="preserve" class=""><g>
<g xmlns="http://www.w3.org/2000/svg">
	<g>
		<path d="M256,105.999c-57.891,0-105,47.109-105,105s47.109,105,105,105s105-47.109,105-105S313.891,105.999,256,105.999z     M211,165.999c8.284,0,15,6.714,15,15c0,8.284-6.716,15-15,15s-15-6.716-15-15C196,172.714,202.716,165.999,211,165.999z     M309.027,266.575c-5.86,5.86-15.351,5.86-21.211,0c-17.549-17.549-46.084-17.549-63.633,0c-5.859,5.859-15.352,5.859-21.211,0    c-5.859-5.859-5.859-15.352,0-21.211c29.238-29.238,76.816-29.238,106.055,0C314.887,251.224,314.887,260.716,309.027,266.575z     M301,195.999c-8.284,0-15-6.716-15-15c0-8.286,6.716-15,15-15s15,6.714,15,15C316,189.283,309.284,195.999,301,195.999z" fill="#5950fc" data-original="#000000" style="" class=""/>
	</g>
</g>
<g xmlns="http://www.w3.org/2000/svg">
	<g>
		<path d="M467,15.999H45c-24.814,0-45,20.186-45,45v300c0,24.814,20.186,45,45,45h46v75c0,13.376,16.224,19.987,25.605,10.605    l85.605-85.605H467c24.814,0,45-20.186,45-45v-300C512,36.185,491.814,15.999,467,15.999z M256,345.999    c-74.443,0-135-60.557-135-135s60.557-135,135-135s135,60.557,135,135S330.443,345.999,256,345.999z" fill="#5950fc" data-original="#000000" style="" class=""/>
	</g>
</g>
<g xmlns="http://www.w3.org/2000/svg">
</g>
<g xmlns="http://www.w3.org/2000/svg">
</g>
<g xmlns="http://www.w3.org/2000/svg">
</g>
<g xmlns="http://www.w3.org/2000/svg">
</g>
<g xmlns="http://www.w3.org/2000/svg">
</g>
<g xmlns="http://www.w3.org/2000/svg">
</g>
<g xmlns="http://www.w3.org/2000/svg">
</g>
<g xmlns="http://www.w3.org/2000/svg">
</g>
<g xmlns="http://www.w3.org/2000/svg">
</g>
<g xmlns="http://www.w3.org/2000/svg">
</g>
<g xmlns="http://www.w3.org/2000/svg">
</g>
<g xmlns="http://www.w3.org/2000/svg">
</g>
<g xmlns="http://www.w3.org/2000/svg">
</g>
<g xmlns="http://www.w3.org/2000/svg">
</g>
<g xmlns="http://www.w3.org/2000/svg">
</g>
</g></svg>
