<?xml version="1.0"?>
<svg xmlns="http://www.w3.org/2000/svg" xmlns:xlink="http://www.w3.org/1999/xlink" xmlns:svgjs="http://svgjs.com/svgjs" version="1.1" width="512" height="512" x="0" y="0" viewBox="0 0 512.061 512.061" style="enable-background:new 0 0 512 512" xml:space="preserve" class=""><g><g xmlns="http://www.w3.org/2000/svg"><circle cx="110.034" cy="110.006" r="35.002" fill="#5950fc" data-original="#000000" style=""/><path d="m187.819 187.789c20.777-20.777 32.22-48.401 32.22-77.785 0-60.656-49.348-110.004-110.005-110.004-60.656 0-110.004 49.348-110.004 110.004 0 29.384 11.442 57.008 32.22 77.785l77.784 77.784zm-142.787-77.783c0-35.842 29.16-65.002 65.002-65.002s65.002 29.16 65.002 65.002-29.16 65.002-65.002 65.002-65.002-29.16-65.002-65.002z" fill="#5950fc" data-original="#000000" style=""/><path d="m432.026 318.913c-44.114 0-80.004 35.89-80.004 80.004 0 21.37 8.321 41.461 23.431 56.572l56.573 56.571 56.572-56.571c15.11-15.112 23.432-35.203 23.432-56.572 0-44.114-35.889-80.004-80.004-80.004z" fill="#5950fc" data-original="#000000" style=""/><path d="m125.034 415.456c0-36.692 29.851-66.543 66.543-66.543h55.664c32.961 0 59.776-26.815 59.776-59.776s-26.815-59.776-59.776-59.776h-58.201v30h58.202c16.419 0 29.776 13.357 29.776 29.776s-13.357 29.776-29.776 29.776h-55.664c-53.234 0-96.543 43.31-96.543 96.544s43.308 96.543 96.543 96.543h167.454v-30h-167.454c-36.693 0-66.544-29.852-66.544-66.544z" fill="#5950fc" data-original="#000000" style=""/></g></g></svg>
