<svg id="Capa_1" enable-background="new 0 0 512 512" height="512" viewBox="0 0 512 512" width="512" xmlns="http://www.w3.org/2000/svg"><g><g><path d="m289.136 7.5h-49.7c-11.513 0-21.647 5.876-27.585 14.789-.741 1.112-1.985 1.783-3.322 1.783l-10.51-.005c-27.449 0-49.7 22.252-49.7 49.7v86.233h215.367v-77.95c0-41.173-33.377-74.55-74.55-74.55z" fill="#474f54"/><path d="m289.136 7.5h-23c41.173 0 74.55 33.377 74.55 74.55v77.95h23v-77.95c0-41.173-33.377-74.55-74.55-74.55z" fill="#32393f"/><path d="m156.594 322.267c-36.596 0-66.263 29.667-66.263 66.263v99.404c0 9.15 7.417 16.567 16.567 16.567h115.972l33.13-14.751 33.138 14.75h115.965c9.15 0 16.567-7.417 16.567-16.567l-.002-99.403c0-36.596-29.667-66.263-66.263-66.263z" fill="#f9f8f9"/><path d="m421.667 388.53c0-36.596-29.667-66.263-66.263-66.263h-23c36.596 0 66.263 29.667 66.263 66.263l.002 99.403c0 9.15-7.417 16.567-16.567 16.567h23c9.15 0 16.567-7.417 16.567-16.567z" fill="#dbecf3"/><path d="m297.47 384.419-8.332 120.081h-66.268l-8.337-120.081v-17.086l41.467-3.65 41.47 3.65z" fill="#5ce3ff"/><path d="m206.302 368v-108.783l99.4.009v108.774z" fill="#ffbfab"/><path d="m355.402 140.033c9.15 0 16.567 7.417 16.567 16.567v33.134c0 9.149-7.417 16.567-16.567 16.567h-198.799c-9.15 0-16.567-7.417-16.567-16.567v-33.134c0-9.15 7.417-16.567 16.567-16.567z" fill="#ffbfab"/><path d="m338.836 206.304c0 45.747-37.085 82.832-82.832 82.832s-82.832-37.085-82.832-82.832l-.001-82.837c0-18.299 14.834-33.133 33.133-33.133h132.533z" fill="#ffcebf"/><g><circle cx="363.686" cy="429.95" fill="#cdcdd4" r="24.85"/></g><path d="m222.87 504.5 16.566-99.4 16.567-14.496 16.567 14.496 16.568 99.4z" fill="#12b0ff"/><path d="m339.333 140.033h-66.763c-36.598 0-66.267-29.669-66.267-66.267h133.03z" fill="#474f54"/><path d="m256 363.683-24.847 2.187v10.238l8.283 28.992h33.134l8.283-28.992v-10.237z" fill="#0093fd"/><path d="m206.303 305.7-24.85 16.567 21.619 57.651c1.727 4.605 7.062 6.7 11.46 4.5l41.47-20.735z" fill="#99ecff"/><path d="m305.7 305.7 24.85 16.567-21.619 57.651c-1.727 4.605-7.062 6.7-11.46 4.5l-41.471-20.735z" fill="#99ecff"/><path d="m206.302 279.875h9.198v19.5h-9.198z" fill="#ffbfab"/><path d="m296.505 279.875h9.198v19.5h-9.198z" fill="#ffbfab"/><path d="m206.303 48.133c4.142 0 7.5-3.358 7.5-7.5 0-17.985 14.397-32.661 32.27-33.133h-6.637c-11.513 0-21.647 5.876-27.585 14.789-.741 1.112-1.985 1.783-3.322 1.783l-6.791-.003c-1.899 5.167-2.936 10.747-2.936 16.565.001 4.141 3.359 7.499 7.501 7.499z" fill="#32393f"/></g><g fill="#0c0a0b"><path d="m222.869 188.95c4.142 0 7.5-3.358 7.5-7.5v-8.283c0-4.142-3.358-7.5-7.5-7.5s-7.5 3.358-7.5 7.5v8.283c0 4.142 3.358 7.5 7.5 7.5z"/><path d="m289.136 188.95c4.142 0 7.5-3.358 7.5-7.5v-8.283c0-4.142-3.358-7.5-7.5-7.5s-7.5 3.358-7.5 7.5v8.283c0 4.142 3.358 7.5 7.5 7.5z"/><path d="m256.003 230.369c8.551 0 16.533-4.606 20.832-12.021 2.078-3.583.857-8.173-2.727-10.25-3.583-2.079-8.173-.857-10.25 2.727-1.626 2.804-4.635 4.545-7.855 4.545s-6.229-1.741-7.854-4.545c-2.078-3.583-6.667-4.803-10.25-2.727-3.584 2.077-4.804 6.667-2.727 10.25 4.299 7.415 12.281 12.021 20.831 12.021z"/><path d="m429.167 388.53c0-35.41-25.083-65.061-58.412-72.145-2.859-19.627-19.795-34.751-40.202-34.751h-17.351v-5.467c18.399-15.092 30.75-37.293 32.82-62.366h9.38c13.271 0 24.067-10.796 24.067-24.067v-33.134c0-7.234-3.213-13.729-8.283-18.144v-56.406c0-45.243-36.808-82.05-82.05-82.05h-49.7c-13.404 0-25.308 6.528-32.714 16.567h-8.703c-9.521 0-18.951 2.389-27.27 6.908-3.64 1.977-4.987 6.531-3.01 10.17 1.359 2.502 3.936 3.921 6.597 3.921 1.209 0 2.436-.294 3.573-.911 6.128-3.329 13.083-5.089 20.11-5.089h1.816c-.668 2.918-1.032 5.949-1.032 9.066 0 4.142 3.358 7.5 7.5 7.5s7.5-3.358 7.5-7.5c0-14.134 11.499-25.633 25.633-25.633h49.7c36.972 0 67.05 30.079 67.05 67.05v50.503c-.261-.008-.521-.02-.784-.02h-9.066v-9.066c0-4.142-3.358-7.5-7.5-7.5s-7.5 3.358-7.5 7.5v9.066h-58.766c-32.404 0-58.767-26.363-58.767-58.767 0-4.142-3.358-7.5-7.5-7.5s-7.5 3.358-7.5 7.5c0 3.274.237 6.493.652 9.656-19.155 3.266-33.786 19.974-33.786 40.045 0 .003.001.006.001.01v9.057h-9.067c-.263 0-.523.012-.783.02v-58.786c0-6.606 1.481-12.929 4.402-18.79 1.847-3.707.339-8.21-3.368-10.058-3.708-1.847-8.21-.34-10.058 3.368-3.965 7.958-5.976 16.531-5.976 25.48v64.688c-5.07 4.416-8.283 10.91-8.283 18.145v33.134c0 13.27 10.796 24.067 24.066 24.067h9.381c2.07 25.072 14.42 47.273 32.818 62.364v5.469h-9.066c-19.958 0-36.589 14.467-39.987 33.462-37.475 3.466-66.919 35.069-66.919 73.434v99.403c0 13.271 10.796 24.067 24.067 24.067h27.206c4.142 0 7.5-3.358 7.5-7.5s-3.358-7.5-7.5-7.5h-27.206c-5 0-9.067-4.067-9.067-9.067v-99.403c0-29.863 22.397-54.577 51.272-58.269v59.776c-18.763 3.623-33.133 20.63-33.133 40.603v32.444c0 8.703 7.081 15.783 15.783 15.783h8.283c4.142 0 7.5-3.358 7.5-7.5s-3.358-7.5-7.5-7.5h-8.283c-.432 0-.783-.352-.783-.783v-32.444c0-14.132 11.173-25.936 24.908-26.312 6.989-.183 13.597 2.382 18.599 7.249 5.004 4.869 7.76 11.394 7.76 18.374v33.133c0 .432-.352.783-.783.783h-8.284c-4.142 0-7.5 3.358-7.5 7.5s3.358 7.5 7.5 7.5h8.284c8.703 0 15.783-7.08 15.783-15.783v-33.134c0-11.065-4.368-21.409-12.3-29.125-5.828-5.67-13.031-9.374-20.833-10.819v-60.239h12.153l19.794 52.784c1.568 4.182 4.851 7.517 9.008 9.15.82.322 1.662.56 2.514.74l7.259 104.559h-50.727c-4.142 0-7.5 3.358-7.5 7.5s3.358 7.5 7.5 7.5h240.999c13.271 0 24.067-10.796 24.067-24.067zm-65.481 40.637c4.142 0 7.5-3.358 7.5-7.5v-7.337c5.816 2.805 9.85 8.743 9.85 15.621 0 9.566-7.783 17.35-17.35 17.35s-17.35-7.783-17.35-17.35c0-6.878 4.033-12.817 9.85-15.621v7.337c0 4.142 3.358 7.5 7.5 7.5zm-33.133-132.534c11.526 0 21.296 7.647 24.511 18.133h-22.244l-19.619-13.079v-5.055h17.352zm-108.192 92.256 4.063-2.031 5.337 18.677-5.82 34.917zm-8.559-102.737c12.603 6.688 26.966 10.485 42.201 10.485 15.234 0 29.596-3.796 42.199-10.484v16.771l-42.201 49.234-42.199-49.232zm42.199 85.917 15.93 7.965-5.019 17.566h-21.819l-5.02-17.568zm-10.211 40.531h20.427l14.068 84.4h-48.561zm34.456-7.065 5.336-18.676 4.06 2.03-3.577 51.555zm21.662-28.25c-.082.216-.231.369-.447.454-.216.084-.429.074-.636-.028-.002-.001-.004-.002-.006-.003l-32.874-16.437 39.124-45.644 14.368 9.579zm53.494-229.752c5 0 9.067 4.067 9.067 9.066v33.134c0 4.999-4.067 9.067-9.067 9.067h-9.067v-51.267zm-207.865 42.2v-33.133c0-4.999 4.067-9.066 9.066-9.066h9.067l.001 51.267h-9.068c-4.999-.001-9.066-4.068-9.066-9.068zm33.134 16.571-.001-82.837c0-.002 0-.004 0-.006.003-12.989 9.719-23.743 22.264-25.398 10.067 28.771 37.472 49.471 69.636 49.471h58.766v58.767.003c0 41.539-33.794 75.332-75.332 75.332-41.539 0-75.333-33.794-75.333-75.332zm9.065 90.329h9.066v5.054l-19.62 13.08h-13.957c3.215-10.486 12.986-18.134 24.511-18.134zm.829 28.573 14.368-9.579 39.124 45.644-32.878 16.439c-.208.104-.422.113-.637.029-.215-.085-.365-.237-.447-.454zm214.538 171.794h-107.927l7.256-104.56c.851-.179 1.693-.417 2.513-.739 4.157-1.633 7.44-4.968 9.008-9.149l19.794-52.784h19.657c.262 0 .521.016.782.02v68.701c-14.232 3.393-24.85 16.207-24.85 31.463 0 17.837 14.512 32.35 32.35 32.35 17.837 0 32.35-14.512 32.35-32.35 0-15.256-10.618-28.07-24.85-31.463v-66.55c24.759 6.914 42.981 29.658 42.981 56.593l.002 99.403c0 4.998-4.067 9.065-9.066 9.065z"/></g></g></svg>