<?xml version="1.0"?>
<svg xmlns="http://www.w3.org/2000/svg" xmlns:xlink="http://www.w3.org/1999/xlink" xmlns:svgjs="http://svgjs.com/svgjs" version="1.1" width="512" height="512" x="0" y="0" viewBox="0 0 512 512" style="enable-background:new 0 0 512 512" xml:space="preserve" class=""><g><g xmlns="http://www.w3.org/2000/svg"><path d="m286.129 45c0-24.813-20.187-45-45-45h-180.05c-24.813 0-45 20.187-45 45v16h270.05z" fill="#5950fc" data-original="#000000" style="" class=""/><path d="m286.129 91h-270.05v150h270.05zm-105.05 90.05h-15v14.95c0 8.284-6.716 15-15 15s-15-6.716-15-15v-14.95h-15c-8.284 0-15-6.716-15-15s6.716-15 15-15h15v-15.05c0-8.284 6.716-15 15-15s15 6.716 15 15v15.05h15c8.284 0 15 6.716 15 15s-6.716 15-15 15z" fill="#5950fc" data-original="#000000" style="" class=""/><path d="m196.179 406v-52.115l13.752-1.433c42.41-4.415 74.621-39.167 76.126-81.452h-269.906c1.506 42.287 33.719 77.036 76.13 81.45l13.797 1.436v52.114c0 8.284 6.716 15 15 15h60.1c8.285 0 15.001-6.716 15.001-15z" fill="#5950fc" data-original="#000000" style="" class=""/><path d="m480.921 331h-14.741v-194.95c0-41.38-33.67-75.05-75.05-75.05s-75.05 33.67-75.05 75.05v300.95c0 24.81-20.19 45-45 45h-60c-19.92 0-36.87-13.02-42.76-31h-30.93c6.57 34.69 37.11 61 73.69 61h60c41.35 0 75-33.64 75-75v-300.95c0-24.84 20.21-45.05 45.05-45.05s45.05 20.21 45.05 45.05v194.95h-15.259c-8.284 0-15 6.716-15 15v60c0 19.651 12.666 36.388 30.258 42.507v48.493c0 8.284 6.716 15 15 15s15-6.716 15-15v-48.668c17.325-6.264 29.742-22.873 29.742-42.332v-60c0-8.284-6.716-15-15-15z" fill="#5950fc" data-original="#000000" style="" class=""/></g></g></svg>
