<?xml version="1.0"?>
<svg xmlns="http://www.w3.org/2000/svg" xmlns:xlink="http://www.w3.org/1999/xlink" xmlns:svgjs="http://svgjs.com/svgjs" version="1.1" width="512" height="512" x="0" y="0" viewBox="0 0 512.246 512.246" style="enable-background:new 0 0 512 512" xml:space="preserve"><g><g xmlns="http://www.w3.org/2000/svg"><path d="m370.769 137.962c-43.801 0-85.214-7.628-116.609-21.48-9.396-4.146-17.657-8.765-24.738-13.772v30.996c0 11.77 13.775 24.874 36.848 35.054 27.665 12.206 64.776 18.928 104.5 18.928 39.723 0 76.834-6.722 104.499-18.928 23.073-10.18 36.848-23.284 36.848-35.054v-30.996c-7.081 5.007-15.342 9.626-24.738 13.772-31.397 13.852-72.809 21.48-116.61 21.48z" fill="#5950fc" data-original="#000000" style=""/><path d="m370.769 426.862c39.723 0 76.834-6.722 104.499-18.928 23.073-10.18 36.848-23.284 36.848-35.053v-30.997c-7.081 5.007-15.342 9.626-24.738 13.772-31.396 13.852-72.808 21.48-116.609 21.48-17.813 0-35.116-1.251-51.679-3.696-.54 16.65-3.424 32.715-8.33 47.881 18.77 3.639 39.206 5.541 60.009 5.541z" fill="#5950fc" data-original="#000000" style=""/><path d="m275.315 252.13c26.432 9.86 60.147 15.282 95.454 15.282 39.723 0 76.834-6.722 104.499-18.928 23.073-10.18 36.848-23.284 36.848-35.053v-30.997c-7.081 5.007-15.342 9.627-24.738 13.772-31.396 13.852-72.808 21.48-116.609 21.48s-85.214-7.628-116.609-21.48c-9.396-4.146-17.657-8.765-24.738-13.772v32.758c17.32 9.665 32.831 22.191 45.893 36.938z" fill="#5950fc" data-original="#000000" style=""/><path d="m370.769 347.137c39.723 0 76.834-6.722 104.499-18.928 23.073-10.18 36.848-23.284 36.848-35.053v-30.997c-7.081 5.007-15.342 9.626-24.738 13.772-31.396 13.852-72.808 21.48-116.609 21.48-24.251 0-47.957-2.393-69.6-6.882 8.008 16.172 13.581 33.753 16.239 52.265 16.916 2.869 34.805 4.343 53.361 4.343z" fill="#5950fc" data-original="#000000" style=""/><path d="m266.269 89.035c27.665 12.206 64.776 18.928 104.5 18.928 39.723 0 76.834-6.722 104.499-18.928 23.073-10.18 36.848-23.284 36.848-35.053s-13.775-24.874-36.848-35.054c-27.665-12.206-64.777-18.928-104.499-18.928-39.723 0-76.835 6.722-104.5 18.928-23.073 10.18-36.848 23.284-36.848 35.054s13.775 24.873 36.848 35.053z" fill="#5950fc" data-original="#000000" style=""/><path d="m289.194 367.714c0-79.695-64.837-144.532-144.532-144.532s-144.532 64.837-144.532 144.532 64.837 144.532 144.532 144.532 144.532-64.837 144.532-144.532zm-121.999 79.586h-7.533v24.644h-30v-24.644h-40.466v-30h77.999c9.889 0 17.934-8.045 17.934-17.934s-8.045-17.934-17.934-17.934h-36.197c-25.724 0-46.652-20.928-46.652-46.652 0-25.277 20.209-45.907 45.316-46.619v-24.678h30v24.644h32.449v30h-61.113c-9.182 0-16.652 7.47-16.652 16.653 0 9.182 7.47 16.652 16.652 16.652h36.197c26.431 0 47.934 21.503 47.934 47.934-.001 26.431-21.504 47.934-47.934 47.934z" fill="#5950fc" data-original="#000000" style=""/></g></g></svg>
