<?xml version="1.0"?>
<svg xmlns="http://www.w3.org/2000/svg" xmlns:xlink="http://www.w3.org/1999/xlink" xmlns:svgjs="http://svgjs.com/svgjs" version="1.1" width="512" height="512" x="0" y="0" viewBox="0 0 512 512" style="enable-background:new 0 0 512 512" xml:space="preserve" class=""><g><g xmlns="http://www.w3.org/2000/svg"><path d="m425.709 70.174c-45.331-45.253-105.601-70.174-169.709-70.174s-124.378 24.921-169.709 70.174c-45.328 45.249-70.291 105.411-70.291 169.402s24.963 124.153 70.291 169.402c37.253 37.188 84.595 60.645 135.865 67.825l-14.065 14.041 21.22 21.156 46.619-46.538-40.908-52.909-23.754 18.279 12.287 15.891c-100.445-15.617-177.555-102.561-177.555-207.147 0-115.6 94.206-209.647 210-209.647s210 94.047 210 209.647c0 84.013-49.986 159.687-127.346 192.788l11.825 27.506c88.4-37.826 145.521-124.296 145.521-220.294 0-63.991-24.963-124.153-70.291-169.402z" fill="#5950fc" data-original="#000000" style="" class=""/><path d="m256 174.595c16.978 0 30.79 11.219 30.79 25.008h30c0-25.616-19.5-47.193-45.79-53.245v-22.485h-30v22.485c-26.289 6.052-45.79 27.629-45.79 53.245 0 30.292 27.27 54.937 60.79 54.937 16.978 0 30.79 11.219 30.79 25.008s-13.812 25.008-30.79 25.008-30.79-11.219-30.79-25.008h-30c0 25.615 19.5 47.193 45.79 53.244v22.485h30v-22.485c26.289-6.052 45.79-27.629 45.79-53.244 0-30.292-27.27-54.937-60.79-54.937-16.978 0-30.79-11.219-30.79-25.008s13.812-25.008 30.79-25.008z" fill="#5950fc" data-original="#000000" style="" class=""/></g></g></svg>
