<svg enable-background="new 0 0 512 512" height="512" viewBox="0 0 512 512" width="512" xmlns="http://www.w3.org/2000/svg"><g id="BULINE"><circle id="XMLID_895_" cx="256" cy="256" fill="#f7bb38" r="256"/></g><g id="Icons"><g id="XMLID_1688_"><path id="XMLID_1596_" d="m380.102 151.447c0 23.59-9.57 45.31-25.66 62.62-3.79 4.08-7.94 7.92-12.42 11.47-13.81 10.98-30.69 19.29-49.44 23.97 20.83 9.76 34.96 28.65 34.96 50.35 0 21.03-13.26 39.42-33.04 49.42-10.04 5.08-21.77 8-34.29 8-37.19 0-67.33-25.71-67.33-57.42 0-21.07 13.32-39.48 33.16-49.47-19.51-4.3-37.11-12.5-51.53-23.53-4.42-3.39-8.53-7.03-12.32-10.92-17.15-17.6-27.43-40.04-27.43-64.49 0-18.59 5.94-36.03 16.33-51.05 15.78-22.84 41.84-40.11 72.9-47.44 10.63-2.51 21.85-3.85 33.44-3.85 33.62 0 64.09 11.28 86.25 29.57 3.46 2.85 6.72 5.88 9.75 9.05 12.44 13.03 21.15 28.65 24.78 45.73 1.24 5.84 1.89 11.85 1.89 17.99z" fill="#32314b"/><path id="XMLID_1595_" d="m294.502 349.277c-10.04 5.08-21.77 8-34.29 8-37.19 0-67.33-25.71-67.33-57.42 0-21.07 13.32-39.48 33.16-49.47-19.51-4.3-37.11-12.5-51.53-23.53-1.5 20.6-2.08 40.24-2.27 54.95-.04 3.1-4.54 3.43-5.04.37-3.72-22.93-5.05-45.51-5.01-66.24-17.15-17.6-27.43-40.04-27.43-64.49 0-18.59 5.94-36.03 16.33-51.05-.05-.81-.07-1.63-.07-2.45 0-24.67 19.99-44.66 44.66-44.66 3.54 0 6.99.42 10.29 1.2 4.67-6.27 11-11.79 18.55-16.23-.24 4.39-.43 9.3-.53 14.7-.36 19.32.42 44.91 4.2 75.58 7.16 58.01 25.06 134.23 66.31 220.74z" fill="#27273d"/><path id="XMLID_1561_" d="m236.793 296.211h48.141v26.619h-48.141z" fill="#9e4830"/><path id="XMLID_1593_" d="m347.347 159.12v60.695c0 45.277-36.036 59.783-62.31 82.809-15.637 13.703-38.216 13.703-53.853 0-26.274-23.026-62.31-37.532-62.31-82.809v-60.695c0-45.679 34.895-82.709 77.938-82.709h22.598c43.042 0 77.937 37.03 77.937 82.709z" fill="#a65c3b"/><path id="XMLID_1592_" d="m204.488 219.819v-60.701c0-43.344 31.419-78.914 71.425-82.414-2.147-.204-4.314-.295-6.512-.295h-22.588c-43.049 0-77.937 37.035-77.937 82.709v30.047c-9.863 0-17.858 7.995-17.858 17.858s7.995 17.858 17.858 17.858c.059 0 .115-.008.173-.009 2.589 41.333 36.861 55.614 62.126 77.748 12.8 11.223 30.249 13.268 44.738 6.105-3.215-1.577-6.288-3.612-9.127-6.105-26.27-23.016-62.298-37.525-62.298-82.801z" fill="#9e4830"/><circle id="XMLID_1591_" cx="347.345" cy="207.022" fill="#a65c3b" r="17.858"/><g id="XMLID_1590_"><path id="XMLID_2072_" d="m234.823 185.995c-.65 0-1.307-.181-1.894-.559-17.387-11.22-38.145.005-38.354.119-1.69.934-3.82.324-4.755-1.364-.937-1.688-.332-3.814 1.354-4.754.994-.554 24.587-13.406 45.549.116 1.625 1.049 2.091 3.215 1.043 4.839-.668 1.038-1.793 1.603-2.943 1.603z" fill="#27273d"/></g><ellipse id="XMLID_1589_" cx="213.553" cy="204.869" fill="#27273d" rx="7.461" ry="10.74"/><g id="XMLID_1588_"><path id="XMLID_2071_" d="m321.553 185.995c-.65 0-1.308-.181-1.895-.559-17.388-11.22-38.146.005-38.354.119-1.691.934-3.82.322-4.756-1.364-.937-1.688-.332-3.814 1.354-4.754.993-.553 24.587-13.406 45.55.116 1.624 1.049 2.092 3.215 1.044 4.839-.669 1.038-1.795 1.603-2.943 1.603z" fill="#27273d"/></g><ellipse id="XMLID_1587_" cx="300.282" cy="204.869" fill="#27273d" rx="7.461" ry="10.74"/><path id="XMLID_1586_" d="m265.895 234.716h-16.927c-2.49 0-4.509-2.019-4.509-4.509v-.818c0-2.49 2.019-4.509 4.509-4.509h16.927c2.49 0 4.509 2.019 4.509 4.509v.818c0 2.49-2.019 4.509-4.509 4.509z" fill="#9e4830"/><g id="XMLID_1585_"><path id="XMLID_2070_" d="m227.116 200.456c-.589 0-1.185-.149-1.733-.462-12.161-6.949-23.082-.355-23.541-.071-1.639 1.014-3.795.518-4.816-1.116s-.537-3.782 1.092-4.811c.6-.377 14.849-9.159 30.738-.08 1.678.959 2.262 3.098 1.303 4.775-.647 1.131-1.828 1.765-3.043 1.765z" fill="#27273d"/></g><g id="XMLID_1584_"><path id="XMLID_2068_" d="m313.845 200.456c-.589 0-1.186-.149-1.733-.462-12.161-6.949-23.081-.355-23.54-.071-1.638 1.014-3.795.518-4.816-1.116s-.537-3.782 1.092-4.811c.6-.377 14.852-9.158 30.737-.08 1.679.959 2.262 3.098 1.303 4.775-.648 1.131-1.828 1.765-3.043 1.765z" fill="#27273d"/></g><path id="XMLID_1583_" d="m169.388 199.919c-3.923 0-7.103 3.18-7.103 7.103s3.18 7.103 7.103 7.103z" fill="#873d2b"/><path id="XMLID_1582_" d="m347.347 214.126c3.923 0 7.103-3.18 7.103-7.103s-3.18-7.103-7.103-7.103z" fill="#873d2b"/><g id="XMLID_1578_"><path id="XMLID_1581_" d="m238.837 256.998c0 9.767 8.629 19.252 19.274 19.252 10.645 0 17.803-9.485 17.803-19.252z" fill="#fff"/><g fill="#db1b1b"><path id="XMLID_1580_" d="m276.598 256.998c0 5.328-2.153 10.564-5.647 14.487-3.485 3.914-8.311 6.496-13.63 6.496-10.647 0-19.277-10.336-19.277-20.983h1.122c2.664 7.901 9.789 14.296 18.155 14.296 5.319 0 10.145-2.582 13.63-6.505 1.998-2.235 3.558-4.917 4.525-7.791z"/><path id="XMLID_1579_" d="m257.321 251.98c-10.303-1.673-19.274 5.018-19.274 5.018h19.274 19.274s-8.971-6.69-19.274-5.018z"/></g></g><path id="XMLID_1577_" d="m380.102 122.027c0 4-.66 7.85-1.89 11.43-4.12 12.06-14.58 21.18-27.4 23.41 1.89 15.79 3.51 35.44 3.63 57.2.12 21.24-1.18 44.49-5.01 68.11-.49 3.06-5 2.73-5.04-.37-.19-15.03-.79-35.19-2.37-56.27-1.83-24.53-5-50.3-10.43-70.65-12.02-4.81-20.78-16.03-22.08-29.43-11.32 5.24-24.72 8.29-39.11 8.29-14.52 0-28.04-3.11-39.43-8.44-.87 1.12-1.8 2.2-2.78 3.23-8.13 8.66-19.69 14.07-32.51 14.07-2.26 0-4.48-.17-6.65-.49-8.05 21.84-12.3 54.34-14.52 84.74-1.5 20.6-2.08 40.24-2.27 54.95-.04 3.1-4.54 3.43-5.04.37-3.72-22.93-5.05-45.51-5.01-66.24.06-35.03 4.01-64.78 6.95-82.07-10.38-7.68-17.31-19.75-18.05-33.47-.05-.81-.07-1.63-.07-2.45 0-24.67 19.99-44.66 44.66-44.66 3.54 0 6.99.42 10.29 1.2 4.67-6.27 11-11.79 18.55-16.23 12.56-7.39 28.52-11.81 45.88-11.81 39.84 0 72.25 23.26 73.28 52.23.01.47.02.95.02 1.42 0 2.23-.2 4.43-.57 6.59.53-.02 1.06-.04 1.59-.04 3.01 0 5.93.37 8.71 1.08 15.33 3.88 26.67 17.77 26.67 34.3z" fill="#32314b"/><path id="XMLID_1576_" d="m228.203 128.537c-8.13 8.66-19.69 14.07-32.51 14.07-2.26 0-4.48-.17-6.65-.49-8.05 21.84-12.3 54.34-14.52 84.74-1.5 20.6-2.08 40.24-2.27 54.95-.04 3.1-4.54 3.43-5.04.37-3.72-22.93-5.05-45.51-5.01-66.24.06-35.03 4.01-64.78 6.95-82.07-10.38-7.68-17.31-19.75-18.05-33.47-.05-.81-.07-1.63-.07-2.45 0-24.67 19.99-44.66 44.66-44.66 3.54 0 6.99.42 10.29 1.2 4.67-6.27 11-11.79 18.55-16.23-.24 4.39 2.948 10.568-.53 14.7-19.741 23.454-24.016 44.154 4.2 75.58z" fill="#27273d"/><path id="XMLID_1575_" d="m309.72 63.922c.864 9.852-.13 24.123-10.183 34.874-1.573 1.683-.304 4.414 1.994 4.253 6.666-.468 16.441-1.851 21.837-5.891 1.354-1.014 3.298-.529 3.907 1.049 1.358 3.523 3.037 9.25 2.314 14.71-.333 2.515 2.87 3.815 4.477 1.851 4.823-5.893 8.874-16.405 2.863-33.948-.658-1.919-3.215-2.3-4.416-.664l-.93 1.267c-1.025 1.397-3.121 1.366-4.105-.06l-13.175-19.086c-1.47-2.127-4.809-.932-4.583 1.645z" fill="#3e436d"/><path id="XMLID_1574_" d="m382.977 435.399c-20.907 2.74-41.815 5.48-62.722 8.22-19.18 2.514-40.092 7.893-59.463 7.708-21.674-.208-44.61-5.845-66.074-8.657-20.937-2.743-41.874-5.487-62.811-8.23 5.686-23.147 15.209-45.647 31.744-63.183 9.289-9.851 20.946-18.768 33.486-24.077 9.667-4.092 23.883-4.042 32.15-10.715 6.85-5.529 4.404-10.845 14.187-12.674 5.068-.948 28.461-1.429 34.05-.321 8.566 1.698 6.652 3.949 12.053 9.556 7.178 7.451 17.89 9.184 26.996 13.573 11.793 5.685 22.65 13.238 31.909 22.501 17.987 17.993 28.59 41.837 34.495 66.299z" fill="#b1e1fc"/><path id="XMLID_1573_" d="m284.613 332.461h-47c-3.008 0-5.447-2.439-5.447-5.447v-7.089c0-3.008 2.439-5.447 5.447-5.447h47c3.008 0 5.447 2.439 5.447 5.447v7.089c0 3.008-2.439 5.447-5.447 5.447z" fill="#7cc8fb"/><path id="XMLID_1617_" d="m390.25 474.01c-39.03 24.09-85.02 37.99-134.25 37.99-48.39 0-93.65-13.43-132.25-36.77 1.15-5.15 7.03-36.22 8.16-40.79l9.04-1.26c10.06-1.4 19.59-5.14 28.19-10.54 34.75-21.82 72.89 1.35 86.66 11.4 3.17 2.31 7.47 2.31 10.64 0 13.76-10.05 51.89-33.22 86.64-11.4 8.6 5.41 29.38 10.71 29.38 10.71.18.68 7.73 40.27 7.79 40.66z" fill="#3586cb"/><path id="XMLID_1571_" d="m181.291 403.908c0-1.394-4.077-2.56-9.55-2.867-.308-5.473-1.473-9.55-2.867-9.55s-2.56 4.077-2.867 9.55c-5.473.308-9.55 1.473-9.55 2.867s4.077 2.56 9.55 2.867c.308 5.473 1.473 9.55 2.867 9.55s2.56-4.077 2.867-9.55c5.474-.308 9.55-1.473 9.55-2.867z" fill="#f6d372"/><path id="XMLID_1570_" d="m250.276 403.908c0-1.394-4.077-2.56-9.55-2.867-.308-5.473-1.473-9.55-2.867-9.55s-2.56 4.077-2.867 9.55c-5.473.308-9.55 1.473-9.55 2.867s4.077 2.56 9.55 2.867c.308 5.473 1.473 9.55 2.867 9.55s2.56-4.077 2.867-9.55c5.474-.308 9.55-1.473 9.55-2.867z" fill="#f6d372"/><path id="XMLID_1569_" d="m216.625 383.241c0-1.394-4.077-2.56-9.55-2.867-.308-5.473-1.473-9.55-2.867-9.55s-2.56 4.077-2.867 9.55c-5.473.308-9.55 1.473-9.55 2.867s4.077 2.56 9.55 2.867c.308 5.473 1.473 9.55 2.867 9.55s2.56-4.077 2.867-9.55c5.473-.307 9.55-1.473 9.55-2.867z" fill="#fff"/><path id="XMLID_1568_" d="m209.632 98.872c0-2.47-7.223-4.535-16.92-5.08-.545-9.697-2.61-16.92-5.08-16.92s-4.535 7.223-5.08 16.92c-9.697.545-16.92 2.61-16.92 5.08s7.223 4.535 16.92 5.08c.545 9.697 2.61 16.92 5.08 16.92s4.535-7.223 5.08-16.92c9.697-.545 16.92-2.61 16.92-5.08z" fill="#fff"/><path id="XMLID_1567_" d="m295.364 403.908c0-1.394-4.077-2.56-9.55-2.867-.308-5.473-1.473-9.55-2.867-9.55s-2.56 4.077-2.867 9.55c-5.473.308-9.55 1.473-9.55 2.867s4.077 2.56 9.55 2.867c.308 5.473 1.473 9.55 2.867 9.55s2.56-4.077 2.867-9.55c5.473-.308 9.55-1.473 9.55-2.867z" fill="#f6d372"/><path id="XMLID_1566_" d="m364.349 403.908c0-1.394-4.077-2.56-9.55-2.867-.308-5.473-1.473-9.55-2.867-9.55s-2.56 4.077-2.867 9.55c-5.473.308-9.55 1.473-9.55 2.867s4.077 2.56 9.55 2.867c.308 5.473 1.473 9.55 2.867 9.55s2.56-4.077 2.867-9.55c5.473-.308 9.55-1.473 9.55-2.867z" fill="#f6d372"/><g fill="#fff"><path id="XMLID_1565_" d="m330.697 383.241c0-1.394-4.077-2.56-9.55-2.867-.308-5.473-1.473-9.55-2.867-9.55s-2.56 4.077-2.867 9.55c-5.473.308-9.55 1.473-9.55 2.867s4.077 2.56 9.55 2.867c.308 5.473 1.473 9.55 2.867 9.55s2.56-4.077 2.867-9.55c5.473-.307 9.55-1.473 9.55-2.867z"/><path id="XMLID_1564_" d="m270.529 422.998c0-1.057-3.092-1.941-7.242-2.174-.233-4.15-1.117-7.242-2.174-7.242s-1.941 3.092-2.174 7.242c-4.15.233-7.242 1.117-7.242 2.174s3.092 1.941 7.242 2.174c.233 4.15 1.117 7.242 2.174 7.242s1.941-3.092 2.174-7.242c4.151-.233 7.242-1.117 7.242-2.174z"/><circle id="XMLID_1563_" cx="165.836" cy="224.88" r="9.379"/><circle id="XMLID_1562_" cx="350.899" cy="224.88" r="9.379"/></g></g></g></svg>